<svg xmlns="http://www.w3.org/2000/svg" width="124" height="82" viewBox="0 0 124 82">
    <g fill="none" fill-rule="evenodd">
        <g>
            <path fill="#FA8F77" d="M.625 12.5C.625 5.612 6.237 0 13.125 0c6.9 0 12.5 5.612 12.5 12.5 0 6.887-5.613 12.5-12.5 12.5-6.888 0-12.5-5.613-12.5-12.5zm1.5 0c0 6.063 4.938 11 11 11 6.063 0 11-4.938 11-11 0-6.063-4.938-11-11-11-6.063 0-11 4.938-11 11z" transform="translate(0 32)"/>
            <g stroke="#FF8870" stroke-linecap="round" stroke-linejoin="round" stroke-width="1.2">
                <path d="M10.8 8.4V3.6c0-.428-.23-.824-.6-1.038L6 .162c-.371-.214-.829-.214-1.2 0l-4.2 2.4c-.37.214-.6.61-.6 1.038v4.8c0 .428.23.824.6 1.038l4.2 2.4c.371.214.829.214 1.2 0l4.2-2.4c.37-.214.6-.61.6-1.038z" transform="translate(0 32) translate(8 6)"/>
                <path d="M.162 2.976L5.4 6.006 10.638 2.976M5.4 12.048L5.4 6" transform="translate(0 32) translate(8 6)"/>
            </g>
        </g>
        <g>
            <path fill="#FA8F77" d="M25.95 0c-13.775 0-25 11.225-25 25s11.225 25 25 25 25-11.225 25-25-11.225-25-25-25zm0 47c-12.125 0-22-9.875-22-22s9.875-22 22-22 22 9.875 22 22-9.875 22-22 22z" transform="translate(42.25 31.75)"/>
            <path stroke="#FF8870" stroke-linecap="round" stroke-linejoin="round" stroke-width="2" d="M31 16c.715-.715 1.756-.994 2.732-.732.976.261 1.739 1.024 2 2 .262.976-.017 2.017-.732 2.732L21.5 33.5 16 35l1.5-5.5L31 16z" transform="translate(42.25 31.75)"/>
        </g>
        <g>
            <path fill="#FA8F77" d="M0 12.974C0 6.086 5.612.474 12.5.474c6.887 0 12.5 5.612 12.5 12.5 0 6.887-5.613 12.5-12.5 12.5-6.888 0-12.5-5.613-12.5-12.5zm1.5 0c0 6.062 4.938 11 11 11 6.063 0 11-4.938 11-11 0-6.063-4.938-11-11-11-6.063 0-11 4.937-11 11z" transform="translate(99)"/>
            <g stroke="#FF8870" stroke-linecap="round" stroke-linejoin="round">
                <path d="M3 4L4.5 5.5 9.5 0.5" transform="translate(99) translate(8 8)"/>
                <path d="M9 4.5V8c0 .552-.448 1-1 1H1c-.552 0-1-.448-1-1V1c0-.552.448-1 1-1h5.5" transform="translate(99) translate(8 8)"/>
            </g>
        </g>
    </g>
</svg>
