<svg xmlns="http://www.w3.org/2000/svg" width="124" height="82" viewBox="0 0 124 82">
    <g fill="none" fill-rule="evenodd">
        <g>
            <path fill="#FA8F77" d="M.625 12.5C.625 5.612 6.237 0 13.125 0c6.9 0 12.5 5.612 12.5 12.5 0 6.887-5.613 12.5-12.5 12.5-6.888 0-12.5-5.613-12.5-12.5zm1.5 0c0 6.063 4.938 11 11 11 6.063 0 11-4.938 11-11 0-6.063-4.938-11-11-11-6.063 0-11 4.938-11 11z" transform="translate(0 32)"/>
            <g stroke="#FF8870" stroke-linecap="round" stroke-linejoin="round" transform="translate(0 32) translate(9 8)">
                <path d="M8 9V8c0-1.105-.895-2-2-2H2C.895 6 0 6.895 0 8v1"/>
                <circle cx="4" cy="2" r="2"/>
            </g>
        </g>
        <g>
            <path fill="#FA8F77" d="M25.95 0c-13.775 0-25 11.225-25 25s11.225 25 25 25 25-11.225 25-25-11.225-25-25-25zm0 47c-12.125 0-22-9.875-22-22s9.875-22 22-22 22 9.875 22 22-9.875 22-22 22z" transform="translate(42.25 31.75)"/>
            <path fill="#FF8870" d="M33.536 21.752l2.932 1.736c.17.101.312.243.413.413.33.558.146 1.28-.413 1.61L20.775 34.81c-.181.108-.388.164-.599.164-.65 0-1.176-.526-1.176-1.176v-8.83c.384.209.76.395 1.129.557 1.416.624 3.03.936 4.844.936 1.4 0 2.769-.272 4.105-.816 1.336-.545 2.474-1.335 3.413-2.37.425-.47.773-.977 1.045-1.522zm-14.372-7.148c.331-.56 1.053-.744 1.611-.413l8.13 4.816c-.311.854-.85 1.58-1.617 2.176-.939.73-2.012 1.095-3.222 1.095-.922 0-1.845-.152-2.768-.458-.717-.237-1.483-.575-2.297-1.013L19 15.203c0-.211.057-.418.164-.6z" transform="translate(42.25 31.75)"/>
        </g>
        <g>
            <path fill="#FA8F77" d="M0 12.974C0 6.086 5.612.474 12.5.474c6.887 0 12.5 5.612 12.5 12.5 0 6.887-5.613 12.5-12.5 12.5-6.888 0-12.5-5.613-12.5-12.5zm1.5 0c0 6.062 4.938 11 11 11 6.063 0 11-4.938 11-11 0-6.063-4.938-11-11-11-6.063 0-11 4.937-11 11z" transform="translate(99)"/>
            <g stroke="#FF8870" stroke-linecap="round" stroke-linejoin="round" stroke-width="1.2" transform="translate(99) translate(7 7.75)">
                <path d="M3.6 9L3.6 1.2 10.8 0 10.8 7.8"/>
                <circle cx="1.8" cy="9" r="1.8"/>
                <circle cx="9" cy="7.8" r="1.8"/>
            </g>
        </g>
    </g>
</svg>
