<svg xmlns="http://www.w3.org/2000/svg" width="98" height="87" viewBox="0 0 98 87">
    <g fill="#FA8F77" fill-rule="evenodd">
        <path d="M15.625 12.5c0-6.888 5.612-12.5 12.5-12.5 6.9 0 12.5 5.612 12.5 12.5 0 6.887-5.613 12.5-12.5 12.5-6.888 0-12.5-5.613-12.5-12.5zm1.5 0c0 6.063 4.938 11 11 11 6.063 0 11-4.938 11-11 0-6.063-4.938-11-11-11-6.063 0-11 4.938-11 11zM32.35 9.85c-.313.275-.788.237-1.063-.075-.624-.725-1.487-1.188-2.4-1.363V16.6c.925-.175 1.775-.638 2.4-1.363.276-.312.75-.35 1.063-.075.313.275.35.75.075 1.063-.913 1.05-2.175 1.687-3.538 1.875v3.162c0 .413-.337.75-.75.75-.412 0-.75-.337-.75-.75V18.1c-2.762-.375-4.912-2.725-4.912-5.6 0-2.863 2.15-5.213 4.912-5.588V3.737c0-.412.338-.75.75-.75.413 0 .75.338.75.75v3.175c1.363.175 2.625.825 3.538 1.875.275.313.238.788-.075 1.063zm-4.975-1.438c-1.938.35-3.413 2.05-3.413 4.088 0 2.037 1.475 3.737 3.413 4.1V8.412zM72.2 18.75c-13.775 0-25 11.225-25 25s11.225 25 25 25 25-11.225 25-25-11.225-25-25-25zm0 47c-12.125 0-22-9.875-22-22s9.875-22 22-22 22 9.875 22 22-9.875 22-22 22zm9.05-13.175C79.325 54.4 76.875 55.4 74.3 55.4c-4.5 0-8.325-3.05-9.9-7.35h9.05c.825 0 1.5-.675 1.5-1.5s-.675-1.5-1.5-1.5h-15.4c-.825 0-1.5.675-1.5 1.5s.675 1.5 1.5 1.5h3.2c1.7 6 6.9 10.35 13.05 10.35 3.35 0 6.55-1.3 9.025-3.65.6-.575.625-1.525.05-2.125-.575-.6-1.525-.625-2.125-.05zm-6.95-23.5c3.35 0 6.55 1.3 9.025 3.675.6.575.625 1.525.05 2.125-.575.6-1.525.625-2.125.05-1.925-1.85-4.375-2.85-6.95-2.85-4.5 0-8.325 3.075-9.9 7.375h9.05c.825 0 1.5.675 1.5 1.5s-.675 1.5-1.5 1.5h-15.4c-.825 0-1.5-.675-1.5-1.5s.675-1.5 1.5-1.5h3.175c1.7-6 6.9-10.375 13.075-10.375zM0 74.224c0-6.888 5.612-12.5 12.5-12.5 6.887 0 12.5 5.612 12.5 12.5 0 6.887-5.613 12.5-12.5 12.5-6.888 0-12.5-5.613-12.5-12.5zm1.5 0c0 6.062 4.938 11 11 11 6.063 0 11-4.938 11-11 0-6.063-4.938-11-11-11-6.063 0-11 4.937-11 11zm13.425 5.737c.55.05 1.113-.05 1.675-.3.387-.162.825.013 1.025.35.163.388-.012.825-.387.988-.663.287-1.338.437-2.013.437-.137 0-.262 0-.387-.012-.674-.062-1.12-.243-1.513-.403l-.025-.01-.128-.05c-.122-.05-.246-.1-.385-.137-.812-.238-1.812-.05-2.974.537-.338.175-.738.075-.95-.225-.213-.3-.188-.712.075-.975 1.287-1.275 1.537-2.375 1.524-3.062-.012-.413-.124-.763-.287-1.1H8.113c-.413 0-.75-.338-.75-.75 0-.413.337-.75.75-.75h1.175c-.388-.675-.725-1.488-.738-2.588-.012-.462-.025-1.875.95-3.15.688-.9 1.75-1.525 2.975-1.737 2.713-.475 4.725 1.562 4.95 1.8.275.3.262.775-.038 1.062-.3.275-.774.263-1.062-.037-.063-.075-1.625-1.7-3.6-1.35-.862.15-1.588.575-2.05 1.175-.64.833-.638 1.784-.638 2.185v.04c.013 1.045.436 1.727.879 2.44l.021.035.02.028c.022.033.049.071.068.11h3.525c.412 0 .75.337.75.75 0 .412-.338.75-.75.75h-2.8c.1.324.175.674.188 1.074 0 .575-.1 1.338-.526 2.2.625-.075 1.225-.037 1.775.125.238.075.45.163.663.25l.02.008c.329.134.626.255 1.055.292z"/>
    </g>
</svg>
