<svg xmlns="http://www.w3.org/2000/svg" width="98" height="87" viewBox="0 0 98 87">
    <g fill="none" fill-rule="evenodd">
        <g>
            <path fill="#FA8F77" d="M.625 12.5C.625 5.612 6.237 0 13.125 0c6.9 0 12.5 5.612 12.5 12.5 0 6.887-5.613 12.5-12.5 12.5-6.888 0-12.5-5.613-12.5-12.5zm1.5 0c0 6.063 4.938 11 11 11 6.063 0 11-4.938 11-11 0-6.063-4.938-11-11-11-6.063 0-11 4.938-11 11z" transform="translate(15)"/>
            <g stroke="#FF8068" stroke-linecap="round" stroke-linejoin="round" stroke-width="1.08" transform="translate(15) translate(7 8)">
                <rect width="11.88" height="8.64" rx="1.08"/>
                <path d="M0 3.24L11.88 3.24"/>
            </g>
        </g>
        <g>
            <path fill="#FA8F77" d="M25.95 0c-13.775 0-25 11.225-25 25s11.225 25 25 25 25-11.225 25-25-11.225-25-25-25zm0 47c-12.125 0-22-9.875-22-22s9.875-22 22-22 22 9.875 22 22-9.875 22-22 22z" transform="translate(46.25 18.75)"/>
            <g stroke="#FF8870" stroke-linecap="round" stroke-linejoin="round" stroke-width="2" transform="translate(46.25 18.75) translate(16.75 14.25)">
                <rect width="18" height="18" y="2" rx="2"/>
                <path d="M13 0L13 4M5 0L5 4M0 8L18 8"/>
            </g>
        </g>
        <g>
            <path fill="#FA8F77" d="M0 12.974C0 6.086 5.612.474 12.5.474c6.887 0 12.5 5.612 12.5 12.5 0 6.887-5.613 12.5-12.5 12.5-6.888 0-12.5-5.613-12.5-12.5zm1.5 0c0 6.062 4.938 11 11 11 6.063 0 11-4.938 11-11 0-6.063-4.938-11-11-11-6.063 0-11 4.937-11 11z" transform="translate(0 61.25)"/>
            <path stroke="#FF8870" stroke-linecap="round" stroke-linejoin="round" d="M14.5 8.5c.357-.357.878-.497 1.366-.366.488.13.87.512 1 1s-.009 1.009-.366 1.366l-6.75 6.75L7 18l.75-2.75L14.5 8.5z" transform="translate(0 61.25)"/>
        </g>
    </g>
</svg>
