<svg xmlns="http://www.w3.org/2000/svg" width="837" height="511" viewBox="0 0 837 511">
    <defs>
        <linearGradient id="prefix__a" x1="100%" x2="0%" y1="50%" y2="50%">
            <stop offset="0%" stop-color="#F4F6F9"/>
            <stop offset="100%" stop-color="#C5D0E2"/>
        </linearGradient>
    </defs>
    <path fill="url(#prefix__a)" d="M837 677.891c-12.636 89.383-50.017 166.96-112.144 232.733-62.126 65.772-137.415 115.944-225.866 150.517C410.538 1095.714 319.982 1113 227.318 1113c-120.042 0-226.92-19.816-320.636-59.448C-187.035 1013.92-287.594 952.786-395 870.149c59.237-38.766 119.762-80.803 180.062-141.664 71.603 40.476 137.941 70.41 199.015 89.805 61.074 19.394 122.147 29.091 183.22 29.091 80.028 0 151.104-23.189 213.231-69.567C442.655 731.436 482.142 672.832 498.99 602L837 677.891z" transform="translate(0 -602)"/>
</svg>
