<svg xmlns="http://www.w3.org/2000/svg" width="293" height="189" viewBox="0 0 293 189">
    <path fill="#FFAC9A" d="M978-39.703c-10.03 71.017-39.705 132.653-89.023 184.91-49.318 52.259-109.084 92.121-179.3 119.59C639.46 292.266 567.575 306 494.015 306c-95.292 0-180.135-15.744-254.53-47.233C165.089 227.28 85.262 178.707 0 113.05 47.025 82.25 95.07 48.85 142.938.495c56.842 32.159 109.503 55.942 157.985 71.352C349.405 87.256 397.887 94.96 446.37 94.96c63.529 0 119.951-18.424 169.27-55.272C664.956 2.84 696.301-43.722 709.676-100L978-39.703z"/>
</svg>
