<svg xmlns="http://www.w3.org/2000/svg" width="517" height="174" viewBox="0 0 517 174">

    <path fill="#8086f3" d="M1837-170.851c-10.03 70.841-39.7 132.326-89.014 184.455-49.313 52.129-109.072 91.893-179.28 119.295-70.209 27.4-142.088 41.101-215.64 41.101-95.282 0-180.116-15.705-254.503-47.116-74.388-31.411-154.207-79.864-239.46-145.36-48.477 50.793 209.789-152.376 142.924-112.276 56.835 32.079 109.49 55.804 157.968 71.175 48.477 15.372 96.953 23.057 145.43 23.057 63.522 0 119.939-18.378 169.252-55.136 49.313-36.758 80.655-83.205 94.028-139.344L1837-170.851z" transform="translate(-883)"/>
</svg>
