<svg xmlns="http://www.w3.org/2000/svg" width="473" height="406" viewBox="0 0 473 406">
    <defs>
        <linearGradient id="prefix__a" x1="25.971%" x2="50%" y1="50%" y2="58.617%">
            <stop offset="0%" stop-color="#FFEDD4"/>
            <stop offset="100%" stop-color="#FFB9A2"/>
        </linearGradient>
    </defs>
    <path fill="url(#prefix__a)" d="M978 290.297c-10.03 71.017-39.705 132.653-89.023 184.91-49.318 52.259-109.084 92.121-179.3 119.59C639.46 622.266 567.575 636 494.015 636c-95.292 0-180.135-15.744-254.53-47.233C165.089 557.28 85.262 508.707 0 443.05c47.025-30.8 95.07-64.2 142.938-112.555 56.842 32.159 109.503 55.942 157.985 71.352 48.482 15.409 96.964 23.113 145.446 23.113 63.529 0 119.951-18.424 169.27-55.272 49.318-36.848 80.663-83.41 94.038-139.688L978 290.297z" transform="translate(-505 -230)"/>
</svg>
