<svg xmlns="http://www.w3.org/2000/svg" width="227" height="152" viewBox="0 0 227 152">
    <path fill="#8086f3" d="M227 121.851c-5.015-35.508-19.852-66.326-44.512-92.455-24.659-26.129-54.542-46.06-89.65-59.795C57.731-44.133 21.788-51-14.992-51c-47.647 0-90.068 7.872-127.266 23.616-37.197 15.745-77.111 40.03-119.742 72.86 23.512 15.4 47.535 32.099 71.47 56.276 28.42-16.079 54.75-27.97 78.992-35.675 24.24-7.705 48.481-11.557 72.723-11.557 31.764 0 59.975 9.212 84.634 27.636C70.48 100.58 86.151 123.86 92.84 152L227 121.851z"/>
</svg>
