<svg xmlns="http://www.w3.org/2000/svg" width="263" height="361" viewBox="0 0 263 361">
    <defs>
        <linearGradient id="prefix__a" x1="87.562%" x2="69.288%" y1="43.384%" y2="53.688%">
            <stop offset="0%" stop-color="#8086F3"/>
            <stop offset="100%" stop-color="#FA8F77"/>
        </linearGradient>
    </defs>
    <path fill="url(#prefix__a)" d="M263 210.149c-10.03 70.841-39.7 132.326-89.014 184.455-49.313 52.129-109.072 91.893-179.28 119.295C-75.504 541.299-147.383 555-220.935 555c-95.282 0-180.116-15.705-254.503-47.116-74.388-31.411-154.207-79.864-239.46-145.36-48.477 50.793 209.789-152.376 142.924-112.276 56.835 32.079 109.49 55.804 157.968 71.175 48.477 15.372 96.953 23.057 145.43 23.057 63.522 0 119.939-18.378 169.252-55.136C-50.01 252.586-18.668 206.14-5.295 150L263 210.149z" transform="translate(0 -151)"/>
</svg>
