<svg xmlns="http://www.w3.org/2000/svg" width="1049" height="512" viewBox="0 0 1049 512">
    <defs>
        <linearGradient id="prefix__a" x1="100%" x2="0%" y1="50%" y2="50%">
            <stop offset="0%" stop-color="#F4F6F9"/>
            <stop offset="100%" stop-color="#C5D0E2"/>
        </linearGradient>
    </defs>
    <path fill="url(#prefix__a)" d="M1484 114.9c-12.636 89.394-50.017 166.98-112.144 232.761-62.126 65.78-137.415 115.959-225.866 150.536-88.452 34.577-179.008 51.865-271.672 51.865-120.042 0-226.92-19.818-320.636-59.455C459.965 450.97 359.406 389.828 252 307.18c59.237-38.77 119.762-80.812 180.062-141.68 71.603 40.48 137.941 70.418 199.015 89.815 61.074 19.397 122.147 29.095 183.22 29.095 80.028 0 151.104-23.192 213.231-69.575C1089.655 168.452 1129.142 109.84 1145.99 39L1484 114.9z" transform="matrix(-1 0 0 1 1484 -39)"/>
</svg>
